# xmcd
#
# Track frame offsets:
#	150
#	16587
#	24271
#	42964
#	50406
#	55462
#	74244
#	85293
#	102332
#	109926
#	128131
#	149465
#	157755
#	175532
#	191373
#	197165
#	218193
#	227250
#	247786
#	252046
#
# Disc length: 3556 seconds
#
# Revision: 1
# Processed by: cddbd v1.5.1PL2 Copyright (c) Steve Scherf et al.
# Submitted via: audiograbber 1.81.02
#
DISCID=060de214
DTITLE=Martin Buchholz - Kindertr‰ume
DYEAR=2005
DGENRE=Chanson
TTITLE0=Unsere Kinder
TTITLE1=Malo e lelei
TTITLE2=Karussell
TTITLE3=Tupenu
TTITLE4=Nasoas Lied
TTITLE5=Kinder in der Einen Welt
TTITLE6=Inselzauber
TTITLE7=Am dritten Tag
TTITLE8=Inselalltag
TTITLE9=Regenbogen
TTITLE10=Wunschkind
TTITLE11=Die ‹berfahrt
TTITLE12=Simsalabim
TTITLE13=Das tut man nicht
TTITLE14=Die Ankunft
TTITLE15=So soll es sein
TTITLE16=Am Strand
TTITLE17=Do you believe
TTITLE18=Malo e lelei (Reprise)
TTITLE19=Schlaf gut, kleiner Fuﬂ
EXTD=
EXTT0=
EXTT1=
EXTT2=
EXTT3=
EXTT4=
EXTT5=
EXTT6=
EXTT7=
EXTT8=
EXTT9=
EXTT10=
EXTT11=
EXTT12=
EXTT13=
EXTT14=
EXTT15=
EXTT16=
EXTT17=
EXTT18=
EXTT19=
PLAYORDER=
